<svg width="376" height="254" viewBox="0 0 376 254" fill="none" xmlns="http://www.w3.org/2000/svg">
<g clip-path="url(#clip0)">
<g opacity="0.05">
<path d="M310.934 139.991H208.365H166.405H63.8353L16.3105 253.69H160.69L187.309 189.922L213.929 253.69H358.459L310.934 139.991Z" fill="black"/>
<path d="M245.212 117.279H272.884L259.048 84.042L244.309 49H130.31L115.571 84.042L101.735 117.279H129.558H245.212Z" fill="black"/>
</g>
<path d="M331.084 73.6528L280.263 94.6553" stroke="black" stroke-width="1.23684" stroke-miterlimit="10"/>
<path d="M323.421 83.5122L249.704 113.977" stroke="black" stroke-width="1.23684" stroke-miterlimit="10"/>
<path d="M296.204 100.782L309.087 95.4584" stroke="black" stroke-width="1.23684" stroke-miterlimit="10"/>
<path d="M314.093 93.3892L334.852 84.8106" stroke="black" stroke-width="1.23684" stroke-miterlimit="10"/>
<path d="M350.932 77.3237C350.932 77.3237 350.661 81.1511 340.354 87.9574C330.047 94.7637 316.264 102.025 316.264 102.025C316.264 102.025 318.742 90.7573 317.939 84.842C317.045 78.3144 312.511 69.4412 312.511 69.4412C312.511 69.4412 349.947 58.591 357.85 30.8028C360.216 32.1854 362.191 34.147 363.589 36.503C364.988 38.8591 365.764 41.5322 365.845 44.2709C366.18 53.9 350.932 77.3237 350.932 77.3237Z" fill="white" stroke="black" stroke-width="1.23684" stroke-linejoin="round"/>
<path d="M358.294 40.2118C358.294 40.2118 343.831 60.9949 326.148 68.6033C326.091 69.2607 325.888 69.8971 325.555 70.4667C325.221 71.0363 324.766 71.525 324.221 71.8976C323.677 72.2701 323.056 72.5173 322.404 72.6213C321.753 72.7254 321.086 72.6836 320.452 72.4992C322.922 78.3329 323.396 84.819 321.799 90.9494C321.799 90.9494 324.578 91.5321 324.919 92.9403C324.919 92.9403 346.831 80.8698 352.427 71.379C356.411 64.8206 359.437 57.7254 361.41 50.3095C362.205 47.0915 361.944 43.7032 360.666 40.6446C360.666 40.6446 358.569 44.2003 358.294 40.2118ZM349.523 61.6061C351.238 63.1575 349.993 67.3578 346.718 70.9471C343.444 74.5364 339.409 76.2303 337.679 74.6691C335.949 73.1079 337.209 68.9174 340.483 65.3282C343.757 61.7389 347.799 60.0814 349.523 61.6061Z" fill="white" stroke="black" stroke-width="1.23684" stroke-miterlimit="10"/>
<path d="M349.044 80.5882C349.044 80.5882 358.218 70.5218 361.673 61.1586C363.709 55.7088 365.109 50.042 365.845 44.271C365.845 44.271 366.418 48.1026 361.19 52.0737C358.194 54.3391 353.266 54.7039 353.266 54.7039C353.061 63.4856 351.64 72.1967 349.044 80.5882Z" fill="white" stroke="black" stroke-width="1.23684" stroke-linejoin="round"/>
<path d="M315.875 29.9638L330.374 47.4205C330.374 47.4205 312.347 79.9094 268.719 92.9371L261.178 70.3741C261.178 70.3741 278.743 66.2742 292.065 56.5765C305.387 46.8788 315.875 29.9638 315.875 29.9638Z" fill="white" stroke="black" stroke-width="1.23684" stroke-miterlimit="10"/>
<path d="M321.429 50.429C321.262 49.9132 321.258 49.359 321.416 48.8405C321.573 48.322 321.886 47.8641 322.311 47.528L315.073 40.1258C314.676 40.4954 314.222 40.7982 313.728 41.0226C312.885 41.4227 311.937 41.5447 311.02 41.3708C307.591 45.7828 301.009 53.7481 293.369 59.3274C286.314 64.1981 278.624 68.0782 270.514 70.8591C270.36 71.3182 270.103 71.7361 269.763 72.0813C269.424 72.4264 269.01 72.6897 268.553 72.8512L272.971 85.4076C273.241 85.2847 273.523 85.1567 273.804 85.0288C276.056 84.005 278.131 83.8769 278.51 84.7101C278.556 84.8502 278.57 84.9992 278.549 85.1454C278.528 85.2916 278.474 85.431 278.39 85.5525C304.929 74.6828 319.091 57.3612 323.197 51.69C322.821 51.6429 322.463 51.5029 322.154 51.2828C321.845 51.0627 321.596 50.7693 321.429 50.429V50.429ZM298.472 68.4607C294.85 71.0722 291.052 71.9835 289.983 70.4994C288.915 69.0152 290.985 65.7098 294.608 63.0983C298.23 60.4868 302.028 59.5755 303.096 61.0596C304.165 62.5438 302.095 65.8492 298.472 68.4607Z" fill="white" stroke="black" stroke-width="1.23684" stroke-miterlimit="10"/>
<path d="M256.588 78.3554L207.491 103.096" stroke="black" stroke-width="1.23684" stroke-miterlimit="10"/>
<path d="M249.684 88.7587L178.464 124.647" stroke="black" stroke-width="1.23684" stroke-miterlimit="10"/>
<path d="M241.138 99.3115L261.185 89.2095" stroke="black" stroke-width="1.23684" stroke-miterlimit="10"/>
<path d="M239.486 104.025L225.893 110.869L226.35 111.777L239.943 104.933L239.486 104.025Z" fill="black"/>
<path d="M133.323 241.543C133.323 241.543 145.584 380.049 146.478 406.358C147.371 432.666 155.689 468.155 155.689 468.155L151.807 474.286L155.75 487.871C155.75 487.871 164.961 485.684 169.767 487.44C174.604 489.196 183.291 491.383 183.291 491.383C183.291 491.383 187.697 479.554 188.128 474.286C188.559 469.018 182.891 456.295 182.891 456.295L181.997 298.073H189.884L210.031 465.506L209.138 475.58L213.081 491.352C213.081 491.352 236.309 486.516 238.065 486.085C239.39 485.869 240.745 486.023 242.008 486.516C242.008 486.516 244.719 480.817 244.719 479.061C244.719 477.305 241.207 467.231 241.207 467.231L240.314 388.767V240.218L133.385 238.031L133.323 241.543Z" fill="black"/>
<path d="M183.63 492L183.199 491.877C183.106 491.846 174.419 489.659 169.644 487.903C165.023 486.209 155.997 488.334 155.904 488.365L155.442 488.488L151.283 474.225L155.165 468.064C154.487 465.106 146.816 431.373 145.984 406.358C145.122 380.358 132.953 242.961 132.83 241.575V241.544L132.922 237.508L240.868 239.726V388.829L241.731 467.201C242.193 468.556 245.243 477.367 245.243 479.123C245.243 480.941 242.778 486.209 242.501 486.794L242.285 487.225L241.854 487.04C240.683 486.578 239.42 486.424 238.157 486.609C236.463 487.04 214.159 491.692 213.204 491.877L212.742 491.969L208.645 475.642L209.538 465.537L189.452 298.597H182.521L183.383 456.203C183.938 457.497 189.021 469.203 188.621 474.317C188.189 479.585 183.938 491.076 183.753 491.538L183.63 492ZM209.692 475.58L213.512 490.829C216.839 490.152 236.432 486.054 238.003 485.654C239.297 485.469 240.591 485.562 241.823 485.962C242.655 484.144 244.288 480.386 244.288 479.123C244.288 477.891 242.193 471.483 240.807 467.447L240.776 467.293L239.882 388.829V240.712L133.939 238.556L133.877 241.513C134.093 244.101 146.169 380.419 147.032 406.327C147.894 432.266 156.151 467.694 156.212 468.033L156.274 468.248L152.392 474.379L156.151 487.287C158.122 486.855 165.67 485.408 170.013 486.979C174.141 488.488 181.196 490.337 183.045 490.799C183.815 488.642 187.296 478.846 187.696 474.256C188.128 469.173 182.552 456.665 182.521 456.542L182.49 456.45V456.357L181.597 297.612H190.438L210.647 465.537L209.692 475.58Z" fill="black"/>
<path d="M186.094 281.407C186.002 281.407 185.878 281.376 185.786 281.315L177.438 275.277C177.314 275.184 177.222 275.03 177.222 274.876L176.76 248.907C176.76 248.629 176.975 248.383 177.253 248.383C177.53 248.383 177.746 248.598 177.746 248.876L178.208 274.599L186.371 280.483C186.587 280.637 186.649 280.976 186.495 281.192C186.402 281.315 186.248 281.407 186.094 281.407Z" fill="black"/>
<path d="M178.393 86.9878L164.469 91.2083L152.793 240.958L214.375 241.944L217.61 87.9428L178.393 86.9878Z" fill="white"/>
<path d="M214.868 242.468L152.238 241.451L152.269 240.927L163.976 90.8383L178.331 86.4946H178.424L218.164 87.4804V87.9733L214.868 242.468ZM153.317 240.465L213.882 241.42L217.117 88.4354L178.485 87.4804L164.961 91.5777L153.317 240.465Z" fill="black"/>
<path d="M157.043 107.197L166.285 85.3244L172.847 83.2604L204.701 81.6585C205.379 81.6277 206.087 81.7509 206.734 81.9973C207.35 82.2438 211.848 83.2912 213.234 83.9073L225.865 113.543" fill="white"/>
<path d="M225.311 113.789L212.773 84.4001C211.848 84.0305 209.969 83.5376 208.552 83.1679C207.412 82.8598 206.765 82.7058 206.488 82.5825C205.934 82.3669 205.317 82.2437 204.732 82.2745L172.94 83.8764L166.748 85.848L157.629 107.443L156.489 106.95L165.854 84.8006L172.755 82.6134H172.847L204.701 81.0114C205.471 80.9806 206.272 81.1038 206.981 81.4119C207.166 81.5043 208.059 81.72 208.891 81.9356C210.555 82.3669 212.619 82.9214 213.512 83.3219L213.728 83.4143L226.481 113.266L225.311 113.789Z" fill="black"/>
<path d="M171.461 70.5984L172.447 85.4779C172.447 85.4779 181.905 106.18 188.22 109.137C194.535 112.095 208.953 84.4921 208.953 84.4921L207.967 68.0415H171.123L171.461 70.5984Z" fill="white"/>
<path d="M189.206 109.846C188.775 109.846 188.374 109.754 188.005 109.6C181.597 106.581 172.386 86.5256 171.985 85.6938L171.955 85.509L170.969 70.6603L170.568 67.5488H208.46L209.477 84.5848L209.415 84.708C207.998 87.419 196.076 109.846 189.206 109.846ZM172.971 85.3241C173.649 86.772 182.583 105.903 188.467 108.645C193.242 110.893 204.455 91.9783 208.46 84.3383L207.505 68.5038H171.708L171.985 70.5062L172.971 85.3241Z" fill="black"/>
<path d="M165.239 48.572C165.239 48.572 159.539 43.8895 158.739 50.3896C157.968 56.8898 166.255 62.8662 166.255 62.8662L165.239 48.572Z" fill="white"/>
<path d="M166.84 63.8832L165.978 63.267C165.639 63.0206 157.445 57.0441 158.246 50.3283C158.492 48.3567 159.201 47.1245 160.371 46.6316C162.558 45.7382 165.454 48.0795 165.577 48.1719L165.731 48.2951L166.84 63.8832ZM161.449 47.4633C161.203 47.4633 160.956 47.4942 160.741 47.5866C159.94 47.8946 159.447 48.8804 159.262 50.4516C158.677 55.319 163.637 60.0016 165.701 61.7575L164.746 48.8496C164.068 48.3259 162.62 47.4633 161.449 47.4633Z" fill="black"/>
<path d="M211.602 48.572C211.602 48.572 217.332 43.8895 218.102 50.3896C218.872 56.8898 210.585 62.8662 210.585 62.8662L211.602 48.572Z" fill="white"/>
<path d="M209.97 63.8831L211.079 48.3259L211.233 48.2027C211.356 48.1102 214.221 45.7689 216.439 46.6623C217.61 47.1244 218.318 48.3567 218.565 50.3591C219.366 57.0749 211.171 63.0514 210.832 63.2978L209.97 63.8831ZM212.065 48.8496L211.14 61.7575C213.204 60.0323 218.164 55.3497 217.579 50.4515C217.394 48.8804 216.87 47.8946 216.1 47.5865C214.837 47.0628 212.896 48.2335 212.065 48.8496Z" fill="black"/>
<path d="M164.191 49.3425C164.191 49.3425 167.303 67.5183 169.921 70.8762C172.509 74.2341 180.55 85.9406 188.097 88.0046C195.614 90.0994 207.32 75.528 209.631 70.599C211.941 65.6699 212.742 43.859 212.742 43.859L212.496 32.1834C212.496 32.1834 211.726 23.6192 208.337 18.9366C204.948 14.254 190.438 11.1426 180.827 14.8702C171.215 18.5669 163.175 35.2948 163.175 38.6835C163.175 42.103 164.191 49.3425 164.191 49.3425Z" fill="white"/>
<path d="M189.607 88.7435C189.021 88.7435 188.467 88.6819 187.943 88.5278C181.042 86.6178 173.895 77.0987 170.476 72.5085C170.106 71.9848 169.767 71.5535 169.49 71.2146C166.841 67.7951 163.791 50.2047 163.668 49.4345C163.637 49.1264 162.62 42.1026 162.62 38.7139C162.62 35.3251 170.691 18.2584 180.58 14.4384C190.284 10.68 205.102 13.7607 208.676 18.6897C212.095 23.4339 212.896 31.844 212.927 32.1829L213.173 43.8893C213.143 44.8135 212.342 65.8851 210 70.845C207.782 75.7432 197.401 88.7435 189.607 88.7435ZM164.684 49.2805C164.777 49.7426 167.826 67.3946 170.291 70.5985C170.568 70.9374 170.907 71.3995 171.277 71.8924C174.357 76.0204 181.628 85.7245 188.189 87.542C195.121 89.452 206.673 75.62 209.138 70.4137C211.387 65.6387 212.218 44.105 212.218 43.8893L211.972 32.2445C211.972 32.1829 211.171 23.8035 207.906 19.275C204.578 14.654 190.099 11.8507 180.981 15.3626C171.646 18.9669 163.668 35.5408 163.668 38.7139C163.668 41.9793 164.653 49.0032 164.684 49.2805Z" fill="black"/>
<path fill-rule="evenodd" clip-rule="evenodd" d="M176.822 50.2053C178.331 49.7124 179.995 50.5133 180.703 51.838C180.95 51.8996 181.227 52.1153 181.196 52.4233C181.134 52.8546 181.073 53.1319 180.765 53.4707C180.303 53.9944 179.409 53.7172 179.194 53.0703V53.0394C178.978 52.2077 178.054 51.6532 177.222 51.9612C176.267 52.3001 176.267 53.3167 175.589 53.902C175.497 53.9636 175.404 53.9944 175.312 53.9328C174.603 53.594 174.727 52.5465 174.973 51.9304C175.312 51.1603 175.99 50.4825 176.822 50.2053Z" fill="black"/>
<path fill-rule="evenodd" clip-rule="evenodd" d="M199.434 48.8494C197.925 48.3565 196.23 49.1267 195.491 50.4822L195.06 51.0675C195.121 51.4988 195.183 51.7761 195.491 52.1149C195.953 52.6386 196.846 52.3614 197.062 51.7144V51.6836C197.278 50.8519 198.202 50.2973 199.034 50.6054C199.989 50.9443 199.989 51.9609 200.666 52.5462C200.759 52.6078 200.851 52.6386 200.944 52.577C201.652 52.2382 201.529 51.1907 201.282 50.5746C200.913 49.8353 200.266 49.1267 199.434 48.8494Z" fill="black"/>
<path d="M188.867 66.7791C187.512 66.7791 185.971 65.5777 185.201 64.5611L186.002 63.9449C186.741 64.8999 188.313 66.0398 189.206 65.7009C190.346 65.2696 191.024 64.4378 191.547 63.7601C191.701 63.5444 191.855 63.3596 192.009 63.2056L192.749 63.8833C192.626 64.0373 192.502 64.1914 192.348 64.3762C191.763 65.1156 190.993 66.1014 189.576 66.6251C189.329 66.7175 189.083 66.7791 188.867 66.7791Z" fill="black"/>
<path d="M182.613 72.7248C182.613 72.7248 188.59 77.3765 196.63 71.9546L182.613 72.7248Z" fill="white"/>
<path d="M188.805 75.0657C184.862 75.0657 182.336 73.1557 182.305 73.1249L182.921 72.3239C183.168 72.5088 188.713 76.6984 196.353 71.5229L196.907 72.3547C193.888 74.4188 191.116 75.0657 188.805 75.0657Z" fill="black"/>
<path d="M204.332 46.0768C203.069 44.8138 201.436 44.0128 199.68 43.7355C197.893 43.4583 196.137 43.7663 194.535 44.5981L194.073 43.7047C195.86 42.7805 197.832 42.4417 199.834 42.7189C201.836 43.027 203.623 43.9204 205.071 45.3375L204.332 46.0768Z" fill="black"/>
<path d="M172.632 45.5842L171.862 44.9373C172.94 43.6742 174.45 42.8425 176.082 42.596C177.715 42.3187 179.379 42.6576 180.826 43.4894L180.303 44.352C179.071 43.6434 177.653 43.3662 176.236 43.5818C174.819 43.7975 173.556 44.506 172.632 45.5842Z" fill="black"/>
<path d="M168.843 118.965L165.885 260.89L132.091 259.257L130.058 255.345C130.058 255.345 125.467 255.345 124.79 251.71C124.143 248.074 129.38 168.532 129.38 168.532L100.453 165.883L119.83 128.083C119.83 128.083 125.745 101.775 127.069 99.8032C128.394 97.8316 169.49 83.6914 169.49 83.6914L168.843 118.965Z" fill="black"/>
<path d="M166.378 261.414L131.782 259.75L129.749 255.838C127.932 255.745 124.851 254.821 124.297 251.802C123.65 248.259 128.363 176.326 128.856 168.994L99.6514 166.345L119.367 127.899C120.045 124.91 125.344 101.498 126.669 99.526C127.993 97.5235 162.435 85.6015 169.335 83.2294L170.013 82.9829L169.335 118.996L166.378 261.414ZM132.399 258.764L165.392 260.366L168.35 118.965L168.997 84.4C153.285 89.8219 128.702 98.6634 127.531 100.08C126.607 101.467 122.756 117.64 120.384 128.176L120.353 128.299L101.284 165.483L129.965 168.101L129.934 168.594C128.116 196.073 124.82 248.814 125.344 251.648C125.929 254.821 130.057 254.852 130.119 254.852H130.427L132.399 258.764Z" fill="black"/>
<path d="M176.328 141.792C179.009 142.994 182.397 142.994 184.677 144.904C186.957 146.814 188.004 151.404 188.651 153.684C189.298 155.963 188.312 157.072 186.217 156.487C184.122 155.902 182.613 151.651 181.596 149.648C180.58 147.677 177.961 145.705 176.667 144.411C175.404 143.086 175.527 142.902 176.328 141.792Z" fill="white"/>
<path d="M187.234 157.165C186.895 157.165 186.525 157.104 186.063 156.98C184.123 156.426 182.798 153.53 181.75 151.22C181.535 150.727 181.319 150.265 181.134 149.895C180.457 148.539 178.885 147.153 177.653 146.013C177.16 145.551 176.698 145.151 176.329 144.781C174.881 143.302 174.973 142.84 175.897 141.515C176.051 141.3 176.329 141.207 176.575 141.3C177.561 141.731 178.639 142.008 179.779 142.286C181.627 142.748 183.537 143.241 185.047 144.473C187.234 146.29 188.281 150.172 188.99 152.76L189.206 153.53C189.698 155.255 189.267 156.149 188.836 156.611C188.497 156.888 188.004 157.165 187.234 157.165ZM176.513 142.44C176.113 143.056 176.236 143.148 177.068 144.011C177.407 144.35 177.869 144.781 178.362 145.212C179.686 146.383 181.319 147.862 182.089 149.402C182.274 149.802 182.49 150.265 182.736 150.788C183.599 152.698 184.923 155.563 186.371 155.964C187.142 156.179 187.727 156.149 188.035 155.84C188.374 155.502 188.405 154.762 188.127 153.838L187.912 153.037C187.296 150.757 186.248 146.907 184.338 145.305C183.013 144.196 181.319 143.795 179.502 143.333C178.485 143.087 177.468 142.84 176.513 142.44Z" fill="black"/>
<path d="M155.011 167.486C155.011 167.486 151.992 154.085 150.698 151.528C149.435 149.002 142.596 156.087 142.103 158.367C141.61 160.616 153.008 167.732 155.011 167.486Z" fill="white"/>
<path d="M154.949 167.978C152.823 167.978 145.399 163.481 142.688 160.523C141.826 159.568 141.487 158.86 141.61 158.244C142.072 156.179 146.939 150.819 149.558 150.48C150.297 150.388 150.852 150.665 151.16 151.281C152.454 153.838 155.38 166.808 155.504 167.331L155.627 167.886L155.072 167.948C155.042 167.978 154.98 167.978 154.949 167.978ZM149.835 151.497C149.804 151.497 149.743 151.497 149.712 151.497C147.617 151.743 142.996 156.826 142.627 158.459C142.627 158.49 142.565 158.86 143.458 159.845C145.954 162.587 152.207 166.284 154.395 166.869C153.748 164.097 151.376 153.869 150.297 151.743C150.205 151.62 150.113 151.497 149.835 151.497Z" fill="black"/>
<path d="M130.026 157.011C136.188 152.421 150.235 144.966 157.074 142.81C163.883 140.653 167.826 138.466 172.94 139.513C178.054 140.561 178.423 143.98 181.381 146.845C184.338 149.71 184.893 155.594 185.17 158.798C185.447 162.033 183.63 159.568 182.521 160.986C182.12 160.308 181.75 159.815 181.35 159.199C181.103 160.862 179.933 161.294 178.393 161.509C177.807 162.464 177.253 163.327 176.328 163.943C175.959 164.189 175.435 164.128 175.127 164.405C173.926 165.545 175.096 165.915 172.786 166.377C170.475 166.839 167.918 166.253 165.115 164.806C162.312 163.358 159.785 156.211 154.98 159.322C150.174 162.403 146.693 170.197 142.503 174.879C138.283 179.593 133.97 187.633 126.669 186.801C119.367 185.97 116.78 178.052 118.228 171.336C119.645 164.621 123.865 161.602 130.026 157.011Z" fill="white"/>
<path d="M127.716 187.386C127.346 187.386 126.977 187.355 126.576 187.325C123.742 186.986 121.37 185.599 119.706 183.32C117.519 180.239 116.718 175.618 117.673 171.213C119.121 164.466 123.372 161.324 129.226 156.95L129.688 156.611C136.034 151.897 150.266 144.411 156.89 142.316C158.399 141.824 159.786 141.361 161.079 140.899C165.639 139.297 168.904 138.158 173.032 138.989C176.729 139.729 178.085 141.67 179.532 143.734C180.179 144.658 180.826 145.582 181.72 146.445C184.862 149.494 185.417 155.748 185.663 158.736C185.755 159.815 185.632 160.431 185.262 160.8C184.862 161.17 184.338 161.108 183.938 161.078C183.414 161.016 183.137 160.985 182.89 161.324C182.767 161.447 182.613 161.54 182.428 161.54C182.243 161.54 182.089 161.447 181.997 161.293C181.812 160.985 181.627 160.739 181.473 160.461C180.888 161.509 179.779 161.848 178.67 162.033C178.085 162.988 177.499 163.819 176.575 164.405C176.329 164.559 176.051 164.62 175.836 164.682C175.712 164.713 175.528 164.744 175.497 164.805C175.127 165.144 175.066 165.39 174.973 165.606C174.727 166.315 174.357 166.623 172.878 166.9C170.506 167.362 167.857 166.838 164.838 165.267C163.852 164.744 162.928 163.665 161.973 162.525C159.632 159.722 157.906 158.028 155.226 159.753C152.361 161.601 149.928 165.267 147.555 168.81C146.046 171.059 144.506 173.369 142.873 175.218C142.041 176.142 141.209 177.22 140.316 178.36C136.958 182.611 133.2 187.386 127.716 187.386ZM170.291 139.79C167.487 139.79 164.807 140.715 161.418 141.916C160.124 142.378 158.738 142.84 157.198 143.333C150.636 145.397 136.588 152.791 130.335 157.442L129.873 157.781C123.989 162.187 120.076 165.082 118.721 171.429C117.827 175.526 118.536 179.839 120.569 182.673C122.048 184.706 124.143 185.938 126.669 186.246C132.214 186.893 136.034 181.995 139.423 177.682C140.316 176.542 141.178 175.464 142.041 174.509C143.643 172.722 145.153 170.443 146.631 168.225C149.065 164.589 151.56 160.8 154.61 158.86C158.276 156.487 160.771 159.476 162.743 161.848C163.636 162.895 164.468 163.912 165.269 164.312C168.072 165.76 170.475 166.253 172.601 165.822C173.741 165.606 173.802 165.483 173.895 165.206C173.987 164.928 174.141 164.497 174.696 164.004C174.973 163.758 175.281 163.665 175.558 163.604C175.712 163.573 175.867 163.542 175.959 163.48C176.791 162.957 177.284 162.187 177.869 161.232C177.961 161.078 178.115 160.985 178.269 160.985C179.933 160.77 180.58 160.307 180.765 159.137C180.796 158.921 180.95 158.736 181.196 158.675C181.412 158.613 181.658 158.705 181.781 158.921L182.182 159.537C182.305 159.753 182.459 159.938 182.582 160.153C183.106 159.876 183.661 159.938 184.061 159.999C184.215 160.03 184.462 160.061 184.523 160.03C184.523 160.03 184.677 159.845 184.585 158.86C184.338 155.995 183.815 149.987 180.95 147.245C179.964 146.29 179.286 145.335 178.608 144.38C177.253 142.44 176.051 140.745 172.786 140.068C171.954 139.883 171.122 139.79 170.291 139.79Z" fill="black"/>
<path d="M181.349 159.753C181.134 159.753 180.949 159.63 180.857 159.445C180.456 158.613 180.148 157.781 179.84 156.949C179.193 155.286 178.608 153.684 177.468 152.267C176.297 150.757 174.634 149.525 173.032 148.324C172.323 147.769 171.584 147.245 170.937 146.691C170.721 146.506 170.69 146.167 170.875 145.921C171.06 145.705 171.399 145.674 171.645 145.859C172.292 146.414 173.001 146.937 173.709 147.461C175.373 148.724 177.098 149.987 178.361 151.62C179.593 153.191 180.24 154.916 180.887 156.58C181.195 157.381 181.503 158.213 181.873 159.014C181.996 159.291 181.873 159.599 181.627 159.722C181.503 159.722 181.411 159.753 181.349 159.753Z" fill="black"/>
<path d="M178.331 162.064C178.239 162.064 178.146 162.033 178.054 162.002C176.082 160.862 174.172 159.599 172.786 158.521C170.845 156.981 169.274 155.502 167.58 153.931L166.717 153.13C166.501 152.914 166.471 152.575 166.686 152.36C166.902 152.144 167.241 152.144 167.456 152.329L168.319 153.13C169.982 154.67 171.554 156.149 173.464 157.658C174.788 158.706 176.698 159.969 178.608 161.047C178.855 161.201 178.947 161.54 178.793 161.786C178.701 161.94 178.516 162.064 178.331 162.064Z" fill="black"/>
<path d="M175.065 164.959C175.004 164.959 174.911 164.959 174.85 164.928C174.203 164.651 173.587 164.405 172.97 164.158C171.738 163.665 170.568 163.172 169.243 162.464C167.641 161.601 165.669 160.369 163.174 158.675C162.928 158.521 162.866 158.182 163.02 157.935C163.174 157.689 163.513 157.627 163.759 157.781C166.193 159.445 168.165 160.677 169.736 161.509C170.999 162.187 172.139 162.649 173.34 163.142C173.956 163.388 174.572 163.634 175.25 163.943C175.527 164.066 175.651 164.374 175.527 164.651C175.497 164.836 175.281 164.959 175.065 164.959Z" fill="black"/>
<path d="M210.925 82.8599L206.088 261.26L249.463 260.829L251.219 254.267L255.594 251.186V237.169C255.594 230.145 247.276 179.315 247.276 179.315C247.276 179.315 269.21 176.234 269.642 171.86C270.073 167.485 260.43 101.282 255.193 96.4763C249.925 91.6397 210.925 82.8599 210.925 82.8599Z" fill="black"/>
<path d="M205.595 261.783V261.259L210.432 82.2432L211.017 82.3664C212.619 82.7361 250.203 91.2386 255.502 96.0752C261.201 101.312 270.474 168.224 270.135 171.89C269.703 176.295 251.712 179.16 247.862 179.715C248.786 185.352 256.118 230.484 256.118 237.138V251.432L251.682 254.574L249.864 261.352L205.595 261.783ZM211.418 83.4754L206.612 260.736L249.094 260.304L250.788 253.927L255.101 250.908V237.138C255.101 230.237 246.876 179.869 246.783 179.345L246.691 178.821L247.215 178.76C255.532 177.589 268.841 174.662 269.149 171.767C269.549 167.762 260.03 101.559 254.855 96.7838C250.11 92.4709 216.347 84.6153 211.418 83.4754Z" fill="black"/>
<path d="M221.799 184.583L227.56 201.218C227.56 201.218 230.887 193.178 230.394 188.125C229.901 183.073 229.871 181.533 228.361 181.286C226.882 181.04 222.107 180.054 221.799 184.583Z" fill="white"/>
<path d="M227.529 202.635L221.275 184.675V184.583C221.368 183.196 221.861 182.149 222.723 181.471C224.418 180.146 227.036 180.578 228.268 180.793L228.453 180.824C230.209 181.132 230.363 182.703 230.795 186.924L230.918 188.094C231.411 193.208 228.176 201.095 228.053 201.434L227.529 202.635ZM222.323 184.521L227.622 199.739C228.515 197.306 230.302 191.853 229.932 188.187L229.809 187.016C229.408 182.95 229.285 181.964 228.33 181.81L228.145 181.779C227.036 181.594 224.726 181.194 223.401 182.241C222.754 182.734 222.415 183.474 222.323 184.521Z" fill="black"/>
<path d="M202.761 146.044L184.154 146.321C182.706 146.352 181.566 147.522 181.597 148.97L182.275 195.118C182.305 196.566 183.476 197.706 184.924 197.675L203.531 197.398C204.979 197.367 206.119 196.196 206.088 194.749L205.41 148.601C205.379 147.183 204.178 146.013 202.761 146.044Z" fill="black"/>
<path d="M184.862 198.168C183.168 198.168 181.781 196.813 181.75 195.088L181.073 148.94C181.073 148.108 181.381 147.307 181.966 146.722C182.551 146.136 183.322 145.797 184.153 145.767L202.76 145.489H202.791C204.486 145.489 205.872 146.845 205.903 148.57L206.58 194.718C206.58 195.55 206.272 196.351 205.687 196.936C205.102 197.521 204.332 197.86 203.5 197.891L184.893 198.168C184.893 198.168 184.893 198.168 184.862 198.168ZM202.76 146.537L184.153 146.814C183.599 146.814 183.075 147.06 182.675 147.461C182.274 147.861 182.059 148.385 182.089 148.97L182.767 195.118C182.798 196.289 183.722 197.213 184.893 197.182L203.5 196.905C204.054 196.905 204.578 196.659 204.979 196.258C205.379 195.858 205.595 195.334 205.564 194.749L204.886 148.601C204.886 147.461 203.931 146.537 202.76 146.537Z" fill="black"/>
<path d="M228.392 173.954C225.989 173.584 223.647 173.092 221.306 172.445C220.29 171.952 212.958 169.395 207.135 166.376C201.313 163.357 196.507 166.376 188.22 167.885C179.933 169.395 177.592 169.919 177.592 171.952C177.592 173.985 181.905 174.478 181.905 174.478C181.905 174.478 177.838 174.971 179.871 177.774C181.073 179.438 182.736 180.67 184.677 181.317C185.786 183.165 187.265 184.798 188.99 186.123C191.516 187.879 193.303 189.419 193.303 189.419C194.874 191.391 197 192.869 199.372 193.732C202.915 194.748 222.908 188.649 222.908 188.649C222.908 188.649 228.977 190.405 230.517 187.139C231.996 183.843 228.392 173.954 228.392 173.954Z" fill="white"/>
<path d="M200.388 194.317C199.895 194.317 199.495 194.287 199.218 194.194C196.722 193.332 194.566 191.791 192.902 189.758C192.656 189.542 190.962 188.125 188.682 186.523C186.926 185.168 185.478 183.566 184.338 181.718C182.367 181.009 180.672 179.746 179.44 178.052C178.793 177.158 178.608 176.357 178.916 175.618C179.132 175.156 179.502 174.817 179.933 174.571C178.608 174.17 177.068 173.369 177.068 171.952C177.068 169.426 179.84 168.902 188.127 167.393C190.407 166.961 192.471 166.438 194.289 165.945C199.156 164.651 202.976 163.634 207.351 165.914C211.571 168.101 216.654 170.073 219.396 171.12C220.443 171.521 221.152 171.798 221.46 171.952C223.74 172.599 226.081 173.092 228.453 173.431C228.638 173.461 228.792 173.585 228.853 173.77C229.008 174.17 232.519 183.874 230.917 187.324C229.346 190.682 223.863 189.419 222.877 189.142C221.09 189.696 205.687 194.317 200.388 194.317ZM201.867 165.575C199.618 165.575 197.308 166.191 194.535 166.93C192.687 167.423 190.623 167.978 188.281 168.378C179.994 169.888 178.054 170.412 178.054 171.921C178.054 173.215 180.919 173.831 181.904 173.954C182.151 173.985 182.336 174.201 182.336 174.447C182.336 174.694 182.151 174.909 181.904 174.94C181.442 175.002 180.118 175.31 179.81 176.018C179.656 176.388 179.779 176.85 180.21 177.435C181.35 179.007 182.921 180.177 184.769 180.793C184.893 180.824 184.985 180.917 185.047 181.009C186.125 182.827 187.542 184.398 189.206 185.692C191.701 187.448 193.519 188.988 193.519 189.019C193.549 189.05 193.549 189.05 193.58 189.08C195.12 190.99 197.123 192.407 199.433 193.208C202.206 194.009 217.116 189.82 222.661 188.125C222.754 188.095 222.846 188.095 222.939 188.125C223 188.156 228.607 189.727 229.932 186.893C231.072 184.429 228.977 177.312 227.929 174.386C225.619 174.016 223.339 173.523 221.09 172.907C221.059 172.907 221.029 172.876 220.998 172.876C220.751 172.753 219.95 172.445 218.965 172.075C216.192 170.997 211.078 169.025 206.796 166.807C205.163 165.914 203.531 165.575 201.867 165.575Z" fill="black"/>
<path d="M181.812 174.971C181.535 174.971 181.319 174.755 181.319 174.478C181.319 174.201 181.535 173.954 181.812 173.954C181.966 173.954 196.969 173.43 201.682 171.952C201.96 171.859 202.237 172.013 202.329 172.291C202.422 172.568 202.268 172.845 201.99 172.937C197.154 174.447 182.459 174.971 181.812 174.971C181.843 174.971 181.843 174.971 181.812 174.971Z" fill="black"/>
<path d="M197.277 182.827C193.026 182.827 188.743 182.488 184.523 181.81C184.246 181.779 184.061 181.502 184.092 181.225C184.123 180.947 184.4 180.763 184.677 180.793C188.836 181.471 193.056 181.81 197.246 181.81C199.649 181.748 201.99 181.102 204.085 179.869C204.332 179.715 204.64 179.808 204.763 180.054C204.917 180.301 204.824 180.609 204.578 180.732C202.391 182.057 199.865 182.765 197.277 182.827Z" fill="black"/>
<path d="M200.697 189.604C195.829 189.604 191.147 188.187 190.87 188.125C190.592 188.033 190.438 187.756 190.531 187.509C190.623 187.232 190.9 187.109 191.147 187.17C191.239 187.201 199.927 189.789 205.718 187.94C205.996 187.848 206.273 188.002 206.365 188.279C206.458 188.557 206.304 188.834 206.026 188.926C204.363 189.419 202.514 189.604 200.697 189.604Z" fill="black"/>
<path d="M235.908 130.641L240.745 168.348L227.159 172.291C227.159 172.291 229.377 183.689 228.515 188.957C227.929 193.024 227.652 197.121 227.621 201.218C227.621 201.218 242.501 196.382 252.174 195.519C261.847 194.626 270.165 190.251 272.783 183.258C275.402 176.234 267.084 152.174 267.084 152.174" fill="black"/>
<path d="M227.098 201.926V201.218C227.098 197.09 227.406 192.962 227.991 188.864C228.823 183.72 226.667 172.475 226.636 172.352L226.543 171.89L240.16 167.947L235.385 130.671L236.402 130.548L241.269 168.686L227.683 172.629C228.084 174.847 229.717 184.243 228.946 189.018C228.423 192.808 228.115 196.689 228.084 200.509C231.103 199.554 243.61 195.765 252.082 194.995C262.094 194.071 269.826 189.511 272.26 183.042C274.786 176.265 266.653 152.544 266.561 152.297L267.516 151.958C267.855 152.944 275.865 176.295 273.215 183.381C270.658 190.22 262.618 195.026 252.174 195.981C242.655 196.843 227.899 201.618 227.745 201.649L227.098 201.926Z" fill="black"/>
<path d="M234.122 171.428C234.029 171.428 233.937 171.367 233.875 171.274C233.814 171.151 233.875 170.997 233.998 170.935L240.622 168.101L257.411 163.603C257.535 163.573 257.689 163.634 257.719 163.788C257.75 163.911 257.689 164.066 257.535 164.096L240.776 168.594L234.183 171.428C234.183 171.428 234.153 171.428 234.122 171.428Z" fill="black"/>
<path d="M240.745 168.594C240.621 168.594 240.498 168.502 240.498 168.378L235.292 123.863C235.261 123.709 235.384 123.586 235.508 123.586C235.662 123.555 235.785 123.678 235.785 123.801L240.991 168.317C240.991 168.44 240.899 168.563 240.745 168.594Z" fill="black"/>
<path d="M141.61 145.705C141.61 145.705 143.396 151.774 144.382 155.563C145.399 159.352 155.01 167.454 155.01 167.454C155.01 167.454 141.332 181.872 129.195 188.187C117.057 194.502 102.763 191.329 98.4806 186.277C94.1677 181.225 95.9545 166.53 99.4972 163.511C103.04 160.461 123.649 156.58 128.702 153.776C133.785 151.035 141.61 145.705 141.61 145.705Z" fill="black"/>
<path d="M114.531 192.254C107.138 192.254 100.791 189.789 98.1113 186.616C93.5827 181.287 95.5544 166.253 99.1895 163.142C101.223 161.386 108.339 159.445 115.24 157.566C120.908 156.025 126.238 154.578 128.486 153.345C133.477 150.604 141.271 145.336 141.364 145.274L141.949 144.874L142.134 145.551C142.164 145.613 143.92 151.682 144.906 155.44C145.861 159.044 155.257 166.993 155.38 167.085L155.781 167.424L155.411 167.824C155.288 167.978 141.548 182.365 129.472 188.68C124.512 191.237 119.306 192.254 114.531 192.254ZM141.333 146.506C139.423 147.769 133.2 151.928 128.949 154.239C126.607 155.533 121.216 157.011 115.486 158.552C109.017 160.308 101.685 162.31 99.8364 163.912C96.5402 166.746 94.7226 181.102 98.8814 185.969C102.979 190.775 117.057 193.948 128.979 187.756C139.823 182.119 152.023 169.827 154.302 167.485C152.423 165.853 144.845 159.168 143.92 155.687C143.119 152.698 141.826 148.201 141.333 146.506Z" fill="black"/>
<path d="M108.308 162.248C108.216 162.248 108.123 162.186 108.093 162.094C108.031 161.97 108.093 161.816 108.216 161.755L141.517 145.489C141.641 145.427 141.795 145.489 141.856 145.612C141.918 145.735 141.856 145.889 141.733 145.951L108.431 162.217C108.401 162.217 108.339 162.248 108.308 162.248Z" fill="black"/>
<path d="M137.297 148.108C137.143 148.108 137.051 147.985 137.051 147.861V132.304C137.051 132.15 137.174 132.058 137.297 132.058C137.451 132.058 137.544 132.181 137.544 132.304V147.861C137.544 147.985 137.42 148.108 137.297 148.108Z" fill="black"/>
<path d="M163.39 31.2281C163.39 31.2281 162.435 38.9297 162.435 44.0436C162.435 49.1575 166.625 55.288 166.933 53.9941C168.042 49.7428 169.89 45.7072 172.386 42.1028C175.189 38.6217 178.424 35.4794 182.028 32.7993L179.779 39.207C179.779 39.207 188.128 38.252 191.64 36.0031C194.012 34.4628 196.261 32.7377 198.386 30.8893L194.227 42.7497C194.227 42.7497 199.68 42.1028 202.576 39.2378C204.393 37.3586 205.934 35.2022 207.074 32.8301C207.074 32.8301 208.676 39.8847 209.322 43.0886C210.401 47.001 211.695 50.8518 213.173 54.641C213.173 54.641 215.73 48.5413 215.73 38.252C215.73 27.9627 212.095 27.2541 204.055 19.5217C196.014 11.7893 183.045 14.1614 175.035 17.3961C167.025 20.6307 164.992 22.2327 163.39 31.2281Z" fill="black"/>
<path d="M210.154 20.8769C210.154 20.8769 211.14 19.583 208.521 15.6398C205.903 11.6966 199.711 9.10885 199.711 9.10885L203.623 14.3459C203.623 14.3459 192.533 8.46191 187.943 8.46191C183.353 8.46191 171.923 10.0947 171.923 10.0947L177.469 11.3885C177.469 11.3885 166.039 17.8887 164.407 19.8603C162.774 21.8319 160.956 35.2635 159.077 41.7328C160.71 41.7328 161.881 37.7896 161.881 37.7896C161.881 37.7896 162.497 41.6712 162.497 44.9367C162.497 48.2022 170.537 33.3535 170.537 33.3535C170.537 33.3535 178.424 34.9554 180.056 30.7041C181.689 26.4529 187.789 28.2704 188.128 27.2846C188.466 26.2988 196.291 26.9766 200.512 26.9766C204.763 26.9766 203.069 29.8416 204.701 31.4743C206.334 33.107 207.628 28.825 208.922 28.825C210.216 28.825 211.171 34.6782 211.171 33.3535C211.263 30.5501 212.157 35.972 213.142 33.3535C214.436 30.088 213.05 48.7567 214.806 45.2448C216.716 41.4556 215.022 24.4196 215.022 24.4196H217.948C217.948 24.4504 215.052 19.583 210.154 20.8769Z" fill="black"/>
<path d="M214.406 46.3849C214.344 46.3849 214.282 46.3849 214.221 46.3541C213.327 46.1385 213.173 45.0603 213.112 38.5601C213.112 37.297 213.081 35.6951 213.019 34.6169C212.896 34.7093 212.742 34.7401 212.557 34.7709C212.095 34.8017 211.756 34.4937 211.479 34.124C211.387 34.1856 211.263 34.2164 211.202 34.2164C210.586 34.3088 210.462 33.8467 210.154 32.8609C209.569 30.7969 209.107 29.6879 208.799 29.503C208.676 29.5646 208.152 30.2424 207.844 30.6737C207.166 31.567 206.488 32.4912 205.533 32.5529C205.041 32.5837 204.609 32.3988 204.209 31.9983C203.5 31.2898 203.315 30.4272 203.131 29.657C202.853 28.4248 202.699 27.6854 200.481 27.6854C199.28 27.6854 197.801 27.6238 196.261 27.5622C193.55 27.4698 189.483 27.3158 188.682 27.6854C188.343 28.3016 187.481 28.3324 186.341 28.3632C184.339 28.4248 181.597 28.5172 180.673 30.9817C179.102 35.1098 172.725 34.4012 170.907 34.124C164.191 46.5082 163.021 46.2001 162.528 46.0769C162.281 46.0153 161.85 45.7688 161.85 44.9678C161.85 43.4275 161.727 41.764 161.573 40.4085C160.987 41.4559 160.186 42.4417 159.139 42.4417H158.246L158.492 41.5791C159.262 38.9606 160.032 35.1406 160.772 31.4438C162.096 24.7896 162.99 20.6616 163.976 19.4601C165.331 17.8274 172.509 13.5761 175.744 11.6969L168.381 9.97175L171.893 9.47885C172.355 9.41723 183.445 7.84611 188.005 7.84611C191.363 7.84611 197.832 10.7419 201.436 12.4979L197.739 7.56885L200.019 8.52385C200.266 8.64707 206.427 11.2656 209.138 15.3013C210.678 17.6117 211.048 19.1213 211.048 20.0454C215.761 19.4909 218.534 24.0811 218.565 24.1119L219.181 25.1285H215.792C216.1 28.4864 217.178 42.0412 215.422 45.5532C215.114 46.1077 214.775 46.3849 214.406 46.3849ZM162.066 34.7401L162.528 37.6975C162.559 37.8516 163.051 41.117 163.144 44.1977C164.53 42.5341 167.457 37.6051 169.921 33.0458L170.168 32.6145L170.661 32.7069C170.722 32.7377 177.993 34.1548 179.41 30.4888C180.673 27.1925 184.185 27.0693 186.279 27.0077C186.742 26.9769 187.327 26.9769 187.543 26.9153C188.035 26.0527 190.069 25.9911 196.292 26.2067C197.832 26.2683 199.28 26.33 200.481 26.33C203.747 26.33 204.147 27.9935 204.424 29.349C204.578 29.9959 204.702 30.5812 205.133 31.0433C205.225 31.1358 205.318 31.2282 205.441 31.2282C205.78 31.1974 206.396 30.3964 206.797 29.8727C207.443 29.0101 208.06 28.2091 208.891 28.2091C210.031 28.2091 210.647 29.8419 211.263 31.9059C211.787 31.8751 212.034 32.368 212.249 32.7993C212.311 32.8917 212.372 33.0458 212.465 33.1998V33.169C212.711 32.5529 213.05 32.2756 213.482 32.368C214.313 32.522 214.375 33.2922 214.406 38.6217C214.406 40.2237 214.437 42.3801 214.529 43.828C215.453 39.5151 214.714 28.7945 214.313 24.574L214.252 23.8346H216.593C215.515 22.6024 213.327 20.7848 210.308 21.5858L208.429 22.0787L209.569 20.5692C209.631 20.4459 210.031 19.2445 207.936 16.1022C206.488 13.9458 203.87 12.1898 201.929 11.0808L205.934 16.4103L203.285 15.024C203.161 14.9624 192.287 9.23239 187.943 9.23239C185.078 9.23239 179.348 9.91014 175.62 10.3722L179.286 11.2348L177.808 12.0666C174.665 13.8534 166.194 18.844 164.931 20.3843C164.068 21.4009 162.99 26.9153 162.004 31.7827C161.449 34.6477 160.864 37.5743 160.248 39.9772C160.618 39.3303 160.987 38.4985 161.203 37.6975L162.066 34.7401Z" fill="black"/>
<path d="M139.731 209.111L89.353 231.125" stroke="black" stroke-width="1.23684" stroke-miterlimit="10"/>
<path d="M132.268 219.122L59.189 251.056" stroke="black" stroke-width="1.23684" stroke-miterlimit="10"/>
<path d="M105.408 236.946L118.181 231.364" stroke="black" stroke-width="1.23684" stroke-miterlimit="10"/>
<path d="M123.156 229.19L143.727 220.202" stroke="black" stroke-width="1.23684" stroke-miterlimit="10"/>
<path d="M165.279 209.154C165.279 209.154 164.961 212.978 154.571 219.657C144.181 226.336 130.31 233.428 130.31 233.428C130.31 233.428 132.926 222.191 132.196 216.266C131.382 209.728 126.958 200.8 126.958 200.8C126.958 200.8 164.524 190.411 172.768 162.722C175.116 164.133 177.067 166.119 178.437 168.492C179.806 170.865 180.55 173.547 180.597 176.287C180.813 185.919 165.279 209.154 165.279 209.154Z" fill="white" stroke="black" stroke-width="1.23684" stroke-linejoin="round"/>
<path d="M173.096 172.132C173.096 172.132 158.379 192.736 140.604 200.126C140.538 200.783 140.328 201.417 139.987 201.982C139.647 202.548 139.186 203.031 138.637 203.397C138.087 203.762 137.464 204.002 136.811 204.098C136.158 204.194 135.492 204.144 134.861 203.952C137.258 209.815 137.652 216.307 135.98 222.417C135.98 222.417 138.752 223.034 139.076 224.446C139.076 224.446 161.135 212.646 166.846 203.224C170.911 196.716 174.023 189.658 176.088 182.267C176.922 179.059 176.703 175.668 175.463 172.594C175.463 172.594 173.322 176.123 173.096 172.132ZM164.062 193.417C165.759 194.989 164.462 199.174 161.144 202.722C157.826 206.271 153.77 207.916 152.059 206.333C150.349 204.751 151.66 200.576 154.978 197.027C158.296 193.479 162.358 191.871 164.062 193.417Z" fill="white" stroke="black" stroke-width="1.23684" stroke-miterlimit="10"/>
<path d="M163.35 212.394C163.35 212.394 172.648 202.441 176.217 193.121C178.32 187.697 179.79 182.048 180.597 176.286C180.597 176.286 181.123 180.124 175.846 184.031C172.822 186.259 167.89 186.564 167.89 186.564C167.578 195.342 166.05 204.035 163.35 212.394Z" fill="white" stroke="black" stroke-width="1.23684" stroke-linejoin="round"/>
<path d="M85.3653 220.562L34.314 240.966" stroke="black" stroke-width="1.23684" stroke-miterlimit="10"/>
<path d="M77.5878 230.33L3.53174 259.928" stroke="black" stroke-width="1.23684" stroke-miterlimit="10"/>
<path d="M50.1758 247.294L63.1195 242.121" stroke="black" stroke-width="1.23684" stroke-miterlimit="10"/>
<path d="M68.1611 240.105L89.0066 231.774" stroke="black" stroke-width="1.23684" stroke-miterlimit="10"/>
<path d="M103.146 196.24C103.146 196.24 83.4657 210.267 68.2796 215.794L78.7621 241.219C78.7621 241.219 120.447 229.452 120.114 218.08L103.146 196.24Z" fill="white" stroke="black" stroke-width="1.23684" stroke-linejoin="round"/>
<path d="M83.4623 232.502C82.8964 232.125 82.2237 231.943 81.5453 231.981C80.8668 232.02 80.2191 232.277 79.6993 232.715L74.9799 221.36C75.4372 221.044 75.8381 220.654 76.1657 220.205C76.5976 219.679 76.8947 219.056 77.0316 218.389C77.1685 217.722 77.141 217.032 76.9514 216.378C90.6619 211.732 104.862 199.587 104.862 199.587L114.222 210.975C114.222 210.975 120.872 215.169 113.488 221.899C107.773 227.109 91.5708 232.933 84.5891 235.355C84.6735 234.822 84.6135 234.276 84.4153 233.775C84.2171 233.273 83.888 232.833 83.4623 232.502V232.502ZM106.418 219.008C109.747 216.128 110.943 212.034 109.073 209.878C107.204 207.723 102.982 208.289 99.6436 211.162C96.3054 214.035 95.1192 218.136 96.9913 220.31C98.8633 222.483 103.066 221.902 106.418 219.008Z" fill="white" stroke="black" stroke-width="1.23684" stroke-miterlimit="10"/>
<path d="M96.5651 187.232L112.331 218.272C112.331 218.272 117.732 215.64 120.134 218.095L105.165 188.331C105.165 188.331 102.464 183.922 96.5651 187.232Z" fill="white" stroke="black" stroke-width="1.23684" stroke-linejoin="round"/>
<path d="M106.47 190.963L118.001 213.874C116.823 213.624 115.593 213.812 114.543 214.404L103.881 190.519L106.47 190.963Z" fill="white" stroke="black" stroke-width="1.23684" stroke-miterlimit="10"/>
</g>
<defs>
<clipPath id="clip0">
<rect width="376" height="254" fill="white"/>
</clipPath>
</defs>
</svg>
