<svg width="24" height="24" viewBox="0 0 24 24" fill="none" xmlns="http://www.w3.org/2000/svg">
<path d="M12.0001 8.87384C10.2797 8.87384 8.87583 10.2777 8.87583 11.9981C8.87583 13.7184 10.2797 15.1223 12.0001 15.1223C13.7204 15.1223 15.1243 13.7184 15.1243 11.9981C15.1243 10.2777 13.7204 8.87384 12.0001 8.87384ZM21.3704 11.9981C21.3704 10.7043 21.3821 9.42228 21.3094 8.13087C21.2368 6.63087 20.8946 5.29962 19.7977 4.20275C18.6985 3.10353 17.3696 2.76369 15.8696 2.69103C14.5758 2.61837 13.2938 2.63009 12.0024 2.63009C10.7086 2.63009 9.42661 2.61837 8.13521 2.69103C6.63521 2.76369 5.30396 3.10587 4.20708 4.20275C3.10786 5.30197 2.76802 6.63087 2.69536 8.13087C2.62271 9.42462 2.63443 10.7067 2.63443 11.9981C2.63443 13.2895 2.62271 14.5738 2.69536 15.8653C2.76802 17.3653 3.11021 18.6965 4.20708 19.7934C5.3063 20.8926 6.63521 21.2324 8.13521 21.3051C9.42896 21.3778 10.711 21.366 12.0024 21.366C13.2961 21.366 14.5782 21.3778 15.8696 21.3051C17.3696 21.2324 18.7008 20.8903 19.7977 19.7934C20.8969 18.6942 21.2368 17.3653 21.3094 15.8653C21.3844 14.5738 21.3704 13.2918 21.3704 11.9981ZM12.0001 16.8051C9.33989 16.8051 7.19302 14.6582 7.19302 11.9981C7.19302 9.33791 9.33989 7.19103 12.0001 7.19103C14.6602 7.19103 16.8071 9.33791 16.8071 11.9981C16.8071 14.6582 14.6602 16.8051 12.0001 16.8051ZM17.004 8.11681C16.3829 8.11681 15.8813 7.61525 15.8813 6.99415C15.8813 6.37306 16.3829 5.8715 17.004 5.8715C17.6251 5.8715 18.1266 6.37306 18.1266 6.99415C18.1268 7.14164 18.0979 7.28771 18.0415 7.424C17.9852 7.56029 17.9025 7.68412 17.7982 7.78841C17.6939 7.89269 17.5701 7.97538 17.4338 8.03173C17.2975 8.08808 17.1514 8.117 17.004 8.11681Z" fill="white"/>
</svg>
