<svg width="193" height="41" viewBox="0 0 193 41" fill="none" xmlns="http://www.w3.org/2000/svg">
<path d="M51.0632 16.3809H33.4256H26.2103H8.57274L0.400513 35.9321H25.2275L29.805 24.9669L34.3825 35.9321H59.2354L51.0632 16.3809Z" fill="black"/>
<path d="M39.7616 12.4755H44.5201L42.1409 6.7601L39.6065 0.734375H20.0035L17.469 6.7601L15.0898 12.4755H19.8742H39.7616Z" fill="black"/>
<g clip-path="url(#clip0)">
<path d="M102.337 32.1759H97.3109V14.0803H97.0073L90.2278 29.0728H85.0335L78.2203 14.0803H77.9167V32.1927H72.8911V4.92285H79.1984L87.4958 23.6087H87.7993L96.0629 4.92285H102.337V32.1759Z" fill="black"/>
<path d="M130.719 39.9322V36.2388C131.461 36.3906 132.153 36.4749 132.743 36.4749C134.581 36.4749 136.251 35.8172 137.027 33.861L137.684 32.1914H136.133L128.696 12.7129H133.839L139.135 27.0814H139.438L144.397 12.7129H149.54L141.664 34.603C141.074 36.3232 139.556 40.3706 133.873 40.3706C132.591 40.3538 131.613 40.1683 130.719 39.9322Z" fill="black"/>
<path d="M174.382 12.7141H178.935L179.357 15.0076H179.66C180.824 13.4898 182.46 12.3262 185.377 12.3262C190.015 12.3262 192.966 15.2775 192.966 20.3874V32.1925H187.974V21.3993C187.974 18.2119 186.136 16.6435 183.809 16.6435C181.431 16.6435 179.323 18.1613 179.323 21.6354V32.1925H174.331V12.7141H174.382Z" fill="black"/>
<path d="M122.321 12.7297L121.899 15.0232H121.545C120.618 13.7753 118.779 12.3418 115.744 12.3418C110.55 12.3418 106.637 16.2712 106.603 22.4099C106.603 22.4268 106.603 22.4436 106.603 22.4605C106.603 22.4774 106.603 22.4942 106.603 22.5111C106.637 28.6498 110.566 32.5792 115.744 32.5792C118.779 32.5792 120.618 31.1288 121.545 29.8977H121.899L122.321 32.1913H126.368V22.5111V22.4099V12.7297H122.321ZM116.52 28.245C113.568 28.245 111.595 25.9346 111.578 22.4436C111.595 18.9695 113.568 16.6422 116.52 16.6422C119.471 16.6422 121.377 18.9527 121.393 22.4436C121.377 25.9346 119.471 28.245 116.52 28.245Z" fill="black"/>
<path d="M166.118 12.7297L165.696 15.0232H165.342C164.415 13.7753 162.576 12.3418 159.541 12.3418C154.347 12.3418 150.434 16.2712 150.4 22.4099C150.4 22.4268 150.4 22.4436 150.4 22.4605C150.4 22.4774 150.4 22.4942 150.4 22.5111C150.434 28.6498 154.363 32.5792 159.541 32.5792C162.576 32.5792 164.415 31.1288 165.342 29.8977H165.696L166.118 32.1913H170.165V22.5111V22.4099V12.7297H166.118ZM160.317 28.245C157.365 28.245 155.392 25.9346 155.375 22.4436C155.392 18.9695 157.365 16.6422 160.317 16.6422C163.268 16.6422 165.174 18.9527 165.19 22.4436C165.157 25.9346 163.251 28.245 160.317 28.245Z" fill="black"/>
</g>
<defs>
<clipPath id="clip0">
<rect width="120.109" height="35.4323" fill="white" transform="translate(72.8911 4.92285)"/>
</clipPath>
</defs>
</svg>
