<svg width="48" height="49" viewBox="0 0 48 49" fill="none" xmlns="http://www.w3.org/2000/svg">
<g clip-path="url(#clip0)">
<path d="M4 4.07471H12V0.074707H4C1.8 0.074707 0 1.87471 0 4.07471L0 12.0747H4V4.07471ZM44 0.074707H36V4.07471H44V12.0747H48V4.07471C48 1.87471 46.2 0.074707 44 0.074707ZM4 36.0747H0L0 44.0747C0 46.2747 1.8 48.0747 4 48.0747H12V44.0747H4V36.0747ZM44 44.0747H36V48.0747H44C46.2 48.0747 48 46.2747 48 44.0747V36.0747H44V44.0747ZM16 12.0747V8.07471H20V12.0747H16ZM20 28.0747V24.0747H24V28.0747H20ZM32 8.07471H36V12.0747H32V8.07471ZM36 12.0747H40V16.0747H36V12.0747ZM36 28.0747H40V32.0747H36V28.0747ZM40 24.0747H32V36.0747H40V40.0747H8V8.07471H12V12.0747H16V20.0747H12V24.0747H16V28.0747H20V32.0747H24V36.0747H28V32.0747H24V28.0747H28V20.0747H20V12.0747H24V8.07471H28V16.0747H32V20.0747H40V24.0747ZM16 36.0747V32.0747H12V36.0747H16Z" fill="currentColor"/>
</g>
<defs>
<clipPath id="clip0">
<rect width="48" height="48" fill="currentColor" transform="translate(0 0.074707)"/>
</clipPath>
</defs>
</svg>
