<svg width="48" height="49" viewBox="0 0 48 49" fill="none" xmlns="http://www.w3.org/2000/svg">
<path d="M35.9999 32.2347C34.4799 32.2347 33.1199 32.8347 32.0799 33.7747L17.8199 25.4747C17.9199 25.0147 17.9999 24.5547 17.9999 24.0747C17.9999 23.5947 17.9199 23.1347 17.8199 22.6747L31.9199 14.4547C32.9999 15.4547 34.4199 16.0747 35.9999 16.0747C39.3199 16.0747 41.9999 13.3947 41.9999 10.0747C41.9999 6.75471 39.3199 4.07471 35.9999 4.07471C32.6799 4.07471 29.9999 6.75471 29.9999 10.0747C29.9999 10.5547 30.0799 11.0147 30.1799 11.4747L16.0799 19.6947C14.9999 18.6947 13.5799 18.0747 11.9999 18.0747C8.67988 18.0747 5.99988 20.7547 5.99988 24.0747C5.99988 27.3947 8.67988 30.0747 11.9999 30.0747C13.5799 30.0747 14.9999 29.4547 16.0799 28.4547L30.3199 36.7547C30.2199 37.1747 30.1599 37.6147 30.1599 38.0747C30.1599 41.2947 32.7799 43.8947 35.9999 43.8947C39.2199 43.8947 41.8399 41.2947 41.8399 38.0747C41.8399 34.8547 39.2199 32.2347 35.9999 32.2347ZM35.9999 8.07471C37.0999 8.07471 37.9999 8.97471 37.9999 10.0747C37.9999 11.1747 37.0999 12.0747 35.9999 12.0747C34.8999 12.0747 33.9999 11.1747 33.9999 10.0747C33.9999 8.97471 34.8999 8.07471 35.9999 8.07471ZM11.9999 26.0747C10.8999 26.0747 9.99988 25.1747 9.99988 24.0747C9.99988 22.9747 10.8999 22.0747 11.9999 22.0747C13.0999 22.0747 13.9999 22.9747 13.9999 24.0747C13.9999 25.1747 13.0999 26.0747 11.9999 26.0747ZM35.9999 40.0747C34.8999 40.0747 33.9999 39.1747 33.9999 38.0747C33.9999 36.9747 34.8999 36.0747 35.9999 36.0747C37.0999 36.0747 37.9999 36.9747 37.9999 38.0747C37.9999 39.1747 37.0999 40.0747 35.9999 40.0747Z" fill="currentColor"/>
</svg>
