<svg width="24" height="24" viewBox="0 0 24 24" fill="none" xmlns="http://www.w3.org/2000/svg">
<path d="M21.7496 5.95968C21.0324 6.26905 20.252 6.49171 19.4481 6.57843C20.2827 6.08257 20.9077 5.29921 21.2059 4.3753C20.4227 4.84121 19.5647 5.16792 18.6699 5.34093C18.296 4.94115 17.8437 4.62266 17.3413 4.40532C16.8388 4.18798 16.297 4.07644 15.7496 4.07765C13.5348 4.07765 11.7535 5.87296 11.7535 8.07608C11.7535 8.38546 11.791 8.69483 11.852 8.99249C8.53556 8.81905 5.57775 7.23468 3.61135 4.8089C3.25305 5.42089 3.06528 6.11771 3.0676 6.82686C3.0676 8.21437 3.77306 9.4378 4.84885 10.1573C4.21487 10.1324 3.59574 9.95811 3.04182 9.64874V9.69796C3.04182 11.6409 4.41525 13.2511 6.24572 13.6214C5.90203 13.7107 5.54847 13.7563 5.19338 13.7573C4.93322 13.7573 4.68713 13.7316 4.43869 13.6964C4.94494 15.2808 6.41916 16.4316 8.17463 16.4691C6.80119 17.5448 5.08088 18.1776 3.21291 18.1776C2.87775 18.1776 2.56838 18.1659 2.24728 18.1284C4.01916 19.2651 6.1215 19.9214 8.38556 19.9214C15.7356 19.9214 19.7574 13.8323 19.7574 8.54718C19.7574 8.37374 19.7574 8.2003 19.7457 8.02687C20.5238 7.45733 21.2059 6.75187 21.7496 5.95968Z" fill="white"/>
</svg>
