<svg width="24" height="24" viewBox="0 0 24 24" fill="none" xmlns="http://www.w3.org/2000/svg">
<path d="M6.04251 2.61279C4.1438 2.61279 2.61496 4.14163 2.61496 6.04034V17.9567C2.61496 19.8554 4.1438 21.3842 6.04251 21.3842H12.5011V14.0458H10.5606V11.4037H12.5011V9.14643C12.5011 7.373 13.6476 5.74469 16.2888 5.74469C17.3582 5.74469 18.1489 5.84736 18.1489 5.84736L18.0867 8.31463C18.0867 8.31463 17.2803 8.30701 16.4002 8.30701C15.4478 8.30701 15.2951 8.74585 15.2951 9.47437V11.4037H18.1624L18.0375 14.0458H15.2951V21.3843H17.9588C19.8576 21.3843 21.3864 19.8554 21.3864 17.9567V6.04036C21.3864 4.14165 19.8576 2.61281 17.9588 2.61281H6.04249L6.04251 2.61279Z" fill="white"/>
</svg>
