<svg width="310" height="310" viewBox="0 0 310 310" fill="none" xmlns="http://www.w3.org/2000/svg">
<path d="M305.365 192.497C284.661 275.533 200.544 326.063 117.489 305.361C34.4724 284.659 -16.0682 200.552 4.6412 117.521C25.336 34.4757 109.448 -16.0638 192.479 4.63833C275.529 25.3404 326.065 109.457 305.361 192.497H305.365Z" fill="black"/>
<path d="M155.698 129.983C152.353 129.89 149.024 130.468 145.906 131.684C142.789 132.9 139.947 134.728 137.549 137.061C135.15 139.393 133.244 142.183 131.942 145.266C130.64 148.348 129.97 151.66 129.97 155.006C129.97 155.644 129.995 156.278 130.044 156.911C130.112 157.807 129.913 158.703 129.472 159.486C129.032 160.269 128.37 160.904 127.569 161.311L125.42 162.408V167.521L131.75 164.294L133.801 163.249L135.822 162.221L172.083 143.743L176.157 141.668L184.58 137.376V132.263L176.231 136.523L169.107 140.154L134.708 157.675C134.593 156.788 134.535 155.893 134.535 154.998C134.54 151.428 135.477 147.922 137.254 144.826C139.031 141.729 141.586 139.151 144.666 137.346C147.746 135.541 151.244 134.572 154.814 134.535C158.384 134.498 161.901 135.394 165.018 137.134L169.095 135.056L169.704 134.746C165.622 131.783 160.74 130.123 155.698 129.983ZM184.58 142.491L137.88 166.268L133.806 168.349L125.42 172.626V177.733L133.747 173.488L140.871 169.857L175.307 152.314C175.422 153.207 175.48 154.106 175.479 155.006C175.477 158.58 174.54 162.091 172.761 165.191C170.983 168.291 168.424 170.871 165.34 172.677C162.256 174.482 158.753 175.45 155.179 175.483C151.605 175.517 148.085 174.615 144.967 172.867L144.718 173L140.299 175.253C144.033 177.964 148.444 179.59 153.044 179.951C157.645 180.312 162.255 179.394 166.367 177.299C170.478 175.204 173.93 172.013 176.342 168.079C178.754 164.144 180.031 159.62 180.032 155.006C180.032 154.365 180.008 153.719 179.958 153.083C179.891 152.188 180.09 151.292 180.529 150.509C180.969 149.726 181.631 149.091 182.431 148.683L184.58 147.586V142.491Z" fill="white"/>
<mask id="path-3-outside-1" maskUnits="userSpaceOnUse" x="85.4135" y="33.9829" width="139" height="220" fill="black">
<rect fill="white" x="85.4135" y="33.9829" width="139" height="220"/>
<path fill-rule="evenodd" clip-rule="evenodd" d="M205.976 94.4554H197.48V77.4633C197.48 54.0141 178.449 34.9829 154.999 34.9829C131.55 34.9829 112.519 54.0141 112.519 77.4633V94.4554H104.023C94.6773 94.4554 87.0308 102.102 87.0308 111.448V196.408C87.0308 205.754 94.6773 213.401 104.023 213.401H205.976C215.322 213.401 222.968 205.754 222.968 196.408V111.448C222.968 102.102 215.322 94.4554 205.976 94.4554ZM129.511 77.4633C129.511 63.3598 140.896 51.9751 154.999 51.9751C169.103 51.9751 180.488 63.3598 180.488 77.4633V94.4554H129.511V77.4633ZM104.023 196.408V111.448H205.976V196.408H104.023ZM112.365 239.661C112.365 246.827 106.556 252.636 99.3893 252.636C92.223 252.636 86.4135 246.827 86.4135 239.661C86.4135 232.494 92.223 226.685 99.3893 226.685C106.556 226.685 112.365 232.494 112.365 239.661ZM136.463 252.636C143.629 252.636 149.439 246.827 149.439 239.661C149.439 232.494 143.629 226.685 136.463 226.685C129.297 226.685 123.487 232.494 123.487 239.661C123.487 246.827 129.297 252.636 136.463 252.636ZM186.513 239.661C186.513 246.827 180.703 252.636 173.537 252.636C166.371 252.636 160.561 246.827 160.561 239.661C160.561 232.494 166.371 226.685 173.537 226.685C180.703 226.685 186.513 232.494 186.513 239.661ZM210.611 252.636C217.777 252.636 223.587 246.827 223.587 239.661C223.587 232.494 217.777 226.685 210.611 226.685C203.444 226.685 197.635 232.494 197.635 239.661C197.635 246.827 203.444 252.636 210.611 252.636Z"/>
</mask>
<path fill-rule="evenodd" clip-rule="evenodd" d="M205.976 94.4554H197.48V77.4633C197.48 54.0141 178.449 34.9829 154.999 34.9829C131.55 34.9829 112.519 54.0141 112.519 77.4633V94.4554H104.023C94.6773 94.4554 87.0308 102.102 87.0308 111.448V196.408C87.0308 205.754 94.6773 213.401 104.023 213.401H205.976C215.322 213.401 222.968 205.754 222.968 196.408V111.448C222.968 102.102 215.322 94.4554 205.976 94.4554ZM129.511 77.4633C129.511 63.3598 140.896 51.9751 154.999 51.9751C169.103 51.9751 180.488 63.3598 180.488 77.4633V94.4554H129.511V77.4633ZM104.023 196.408V111.448H205.976V196.408H104.023ZM112.365 239.661C112.365 246.827 106.556 252.636 99.3893 252.636C92.223 252.636 86.4135 246.827 86.4135 239.661C86.4135 232.494 92.223 226.685 99.3893 226.685C106.556 226.685 112.365 232.494 112.365 239.661ZM136.463 252.636C143.629 252.636 149.439 246.827 149.439 239.661C149.439 232.494 143.629 226.685 136.463 226.685C129.297 226.685 123.487 232.494 123.487 239.661C123.487 246.827 129.297 252.636 136.463 252.636ZM186.513 239.661C186.513 246.827 180.703 252.636 173.537 252.636C166.371 252.636 160.561 246.827 160.561 239.661C160.561 232.494 166.371 226.685 173.537 226.685C180.703 226.685 186.513 232.494 186.513 239.661ZM210.611 252.636C217.777 252.636 223.587 246.827 223.587 239.661C223.587 232.494 217.777 226.685 210.611 226.685C203.444 226.685 197.635 232.494 197.635 239.661C197.635 246.827 203.444 252.636 210.611 252.636Z" fill="white"/>
<path d="M197.48 94.4554H197.016V94.9189H197.48V94.4554ZM112.519 94.4554V94.9189H112.982V94.4554H112.519ZM180.488 94.4554V94.9189H180.951V94.4554H180.488ZM129.511 94.4554H129.048V94.9189H129.511V94.4554ZM104.023 111.448V110.984H103.56V111.448H104.023ZM104.023 196.408H103.56V196.872H104.023V196.408ZM205.976 111.448H206.439V110.984H205.976V111.448ZM205.976 196.408V196.872H206.439V196.408H205.976ZM197.48 94.9189H205.976V93.992H197.48V94.9189ZM197.016 77.4633V94.4554H197.943V77.4633H197.016ZM154.999 35.4463C178.193 35.4463 197.016 54.2701 197.016 77.4633H197.943C197.943 53.7582 178.705 34.5195 154.999 34.5195V35.4463ZM112.982 77.4633C112.982 54.2701 131.806 35.4463 154.999 35.4463V34.5195C131.294 34.5195 112.056 53.7582 112.056 77.4633H112.982ZM112.982 94.4554V77.4633H112.056V94.4554H112.982ZM104.023 94.9189H112.519V93.992H104.023V94.9189ZM87.4942 111.448C87.4942 102.358 94.9332 94.9189 104.023 94.9189V93.992C94.4214 93.992 86.5674 101.846 86.5674 111.448H87.4942ZM87.4942 196.408V111.448H86.5674V196.408H87.4942ZM104.023 212.937C94.9332 212.937 87.4942 205.498 87.4942 196.408H86.5674C86.5674 206.01 94.4214 213.864 104.023 213.864V212.937ZM205.976 212.937H104.023V213.864H205.976V212.937ZM222.505 196.408C222.505 205.498 215.066 212.937 205.976 212.937V213.864C215.578 213.864 223.431 206.01 223.431 196.408H222.505ZM222.505 111.448V196.408H223.431V111.448H222.505ZM205.976 94.9189C215.066 94.9189 222.505 102.358 222.505 111.448H223.431C223.431 101.846 215.578 93.992 205.976 93.992V94.9189ZM154.999 51.5116C140.64 51.5116 129.048 63.1039 129.048 77.4633H129.975C129.975 63.6157 141.152 52.4385 154.999 52.4385V51.5116ZM180.951 77.4633C180.951 63.1039 169.359 51.5116 154.999 51.5116V52.4385C168.847 52.4385 180.024 63.6157 180.024 77.4633H180.951ZM180.951 94.4554V77.4633H180.024V94.4554H180.951ZM129.511 94.9189H180.488V93.992H129.511V94.9189ZM129.048 77.4633V94.4554H129.975V77.4633H129.048ZM103.56 111.448V196.408H104.486V111.448H103.56ZM205.976 110.984H104.023V111.911H205.976V110.984ZM206.439 196.408V111.448H205.512V196.408H206.439ZM104.023 196.872H205.976V195.945H104.023V196.872ZM99.3893 253.1C106.812 253.1 112.829 247.083 112.829 239.661H111.902C111.902 246.571 106.3 252.173 99.3893 252.173V253.1ZM85.9501 239.661C85.9501 247.083 91.967 253.1 99.3893 253.1V252.173C92.4789 252.173 86.8769 246.571 86.8769 239.661H85.9501ZM99.3893 226.221C91.967 226.221 85.9501 232.238 85.9501 239.661H86.8769C86.8769 232.75 92.4789 227.148 99.3893 227.148V226.221ZM112.829 239.661C112.829 232.238 106.812 226.221 99.3893 226.221V227.148C106.3 227.148 111.902 232.75 111.902 239.661H112.829ZM148.976 239.661C148.976 246.571 143.374 252.173 136.463 252.173V253.1C143.885 253.1 149.902 247.083 149.902 239.661H148.976ZM136.463 227.148C143.374 227.148 148.976 232.75 148.976 239.661H149.902C149.902 232.238 143.885 226.221 136.463 226.221V227.148ZM123.951 239.661C123.951 232.75 129.553 227.148 136.463 227.148V226.221C129.041 226.221 123.024 232.238 123.024 239.661H123.951ZM136.463 252.173C129.553 252.173 123.951 246.571 123.951 239.661H123.024C123.024 247.083 129.041 253.1 136.463 253.1V252.173ZM173.537 253.1C180.959 253.1 186.976 247.083 186.976 239.661H186.049C186.049 246.571 180.447 252.173 173.537 252.173V253.1ZM160.098 239.661C160.098 247.083 166.115 253.1 173.537 253.1V252.173C166.627 252.173 161.025 246.571 161.025 239.661H160.098ZM173.537 226.221C166.115 226.221 160.098 232.238 160.098 239.661H161.025C161.025 232.75 166.627 227.148 173.537 227.148V226.221ZM186.976 239.661C186.976 232.238 180.959 226.221 173.537 226.221V227.148C180.447 227.148 186.049 232.75 186.049 239.661H186.976ZM223.123 239.661C223.123 246.571 217.521 252.173 210.611 252.173V253.1C218.033 253.1 224.05 247.083 224.05 239.661H223.123ZM210.611 227.148C217.521 227.148 223.123 232.75 223.123 239.661H224.05C224.05 232.238 218.033 226.221 210.611 226.221V227.148ZM198.098 239.661C198.098 232.75 203.7 227.148 210.611 227.148V226.221C203.188 226.221 197.171 232.238 197.171 239.661H198.098ZM210.611 252.173C203.7 252.173 198.098 246.571 198.098 239.661H197.171C197.171 247.083 203.188 253.1 210.611 253.1V252.173Z" fill="white" mask="url(#path-3-outside-1)"/>
</svg>
